<svg version="1.0" xmlns="http://www.w3.org/2000/svg" width="144.000000pt" height="144.000000pt" viewBox="0 0 144.000000 144.000000" preserveAspectRatio="xMidYMid meet">
<g transform="translate(0.000000,144.000000) scale(0.100000,-0.100000)"
 stroke="none">
<path d="M344 976 c-8 -22 12 -98 41 -157 32 -63 96 -141 214 -264 145 -149
182 -204 206 -295 l11 -45 77 -3 c62 -2 78 0 83 12 15 40 -43 190 -107 279
l-30 41 54 55 c85 88 148 171 178 236 31 65 47 139 32 148 -5 3 -46 -6 -91
-20 -62 -19 -83 -30 -88 -47 -17 -53 -171 -236 -199 -236 -28 0 -182 183 -199
237 -5 16 -24 27 -76 42 -38 12 -76 24 -85 27 -9 4 -17 -1 -21 -10z"/>
<path d="M640 901 c0 -31 62 -116 85 -116 23 0 85 85 85 116 0 17 -8 19 -85
19 -77 0 -85 -2 -85 -19z"/>
<path d="M520 398 c-27 -56 -41 -99 -42 -133 l-3 -50 78 -3 c56 -2 78 1 81 10
2 7 11 36 21 63 9 28 19 58 22 67 3 11 -12 35 -47 73 -29 30 -57 55 -62 55 -5
0 -27 -37 -48 -82z"/>
</g>
</svg>
